<svg width="175" height="121" viewBox="0 0 175 121" fill="none" xmlns="http://www.w3.org/2000/svg">
<ellipse cx="3" cy="117.402" rx="3" ry="3" transform="rotate(90 3 117.402)" fill="white" fill-opacity="0.1"/>
<ellipse cx="20.6743" cy="117.402" rx="3" ry="3" transform="rotate(90 20.6743 117.402)" fill="white" fill-opacity="0.1"/>
<ellipse cx="57.9868" cy="117.402" rx="3" ry="3" transform="rotate(90 57.9868 117.402)" fill="white" fill-opacity="0.1"/>
<ellipse cx="114.938" cy="117.402" rx="3" ry="3" transform="rotate(90 114.938 117.402)" fill="white" fill-opacity="0.1"/>
<ellipse cx="134.576" cy="117.402" rx="3" ry="3" transform="rotate(90 134.576 117.402)" fill="white" fill-opacity="0.1"/>
<ellipse cx="154.214" cy="117.402" rx="3" ry="3" transform="rotate(90 154.214 117.402)" fill="white" fill-opacity="0.1"/>
<ellipse cx="171.889" cy="117.402" rx="3" ry="3" transform="rotate(90 171.889 117.402)" fill="white" fill-opacity="0.1"/>
<ellipse cx="40.3125" cy="117.402" rx="3" ry="3" transform="rotate(90 40.3125 117.402)" fill="white" fill-opacity="0.1"/>
<ellipse cx="3" cy="97.7638" rx="3" ry="3" transform="rotate(90 3 97.7638)" fill="white" fill-opacity="0.1"/>
<ellipse cx="20.6743" cy="97.7638" rx="3" ry="3" transform="rotate(90 20.6743 97.7638)" fill="white" fill-opacity="0.1"/>
<ellipse cx="57.9868" cy="97.7638" rx="3" ry="3" transform="rotate(90 57.9868 97.7638)" fill="white" fill-opacity="0.1"/>
<ellipse cx="114.938" cy="97.7638" rx="3" ry="3" transform="rotate(90 114.938 97.7638)" fill="white" fill-opacity="0.1"/>
<ellipse cx="134.576" cy="97.7638" rx="3" ry="3" transform="rotate(90 134.576 97.7638)" fill="white" fill-opacity="0.1"/>
<ellipse cx="154.214" cy="97.7638" rx="3" ry="3" transform="rotate(90 154.214 97.7638)" fill="white" fill-opacity="0.1"/>
<ellipse cx="171.889" cy="97.7638" rx="3" ry="3" transform="rotate(90 171.889 97.7638)" fill="white" fill-opacity="0.1"/>
<ellipse cx="77.625" cy="97.7638" rx="3" ry="3" transform="rotate(90 77.625 97.7638)" fill="white" fill-opacity="0.1"/>
<ellipse cx="40.3125" cy="97.7638" rx="3" ry="3" transform="rotate(90 40.3125 97.7638)" fill="white" fill-opacity="0.1"/>
<ellipse cx="3" cy="78.1255" rx="3" ry="3" transform="rotate(90 3 78.1255)" fill="white" fill-opacity="0.1"/>
<ellipse cx="20.6743" cy="78.1255" rx="3" ry="3" transform="rotate(90 20.6743 78.1255)" fill="white" fill-opacity="0.1"/>
<ellipse cx="57.9868" cy="78.1255" rx="3" ry="3" transform="rotate(90 57.9868 78.1255)" fill="white" fill-opacity="0.1"/>
<ellipse cx="114.938" cy="78.1255" rx="3" ry="3" transform="rotate(90 114.938 78.1255)" fill="white" fill-opacity="0.1"/>
<ellipse cx="134.576" cy="78.1255" rx="3" ry="3" transform="rotate(90 134.576 78.1255)" fill="white" fill-opacity="0.1"/>
<ellipse cx="154.214" cy="78.1255" rx="3" ry="3" transform="rotate(90 154.214 78.1255)" fill="white" fill-opacity="0.1"/>
<ellipse cx="171.889" cy="78.1255" rx="3" ry="3" transform="rotate(90 171.889 78.1255)" fill="white" fill-opacity="0.1"/>
<ellipse cx="77.625" cy="78.1256" rx="3" ry="3" transform="rotate(90 77.625 78.1256)" fill="white" fill-opacity="0.1"/>
<ellipse cx="77.625" cy="40.464" rx="3" ry="3" transform="rotate(90 77.625 40.464)" fill="white" fill-opacity="0.1"/>
<ellipse cx="95.2993" cy="78.1256" rx="3" ry="3" transform="rotate(90 95.2993 78.1256)" fill="white" fill-opacity="0.1"/>
<ellipse cx="95.2993" cy="40.464" rx="3" ry="3" transform="rotate(90 95.2993 40.464)" fill="white" fill-opacity="0.1"/>
<ellipse cx="20.6743" cy="60.451" rx="3" ry="3" transform="rotate(90 20.6743 60.451)" fill="white" fill-opacity="0.1"/>
<ellipse cx="20.6743" cy="40.8129" rx="3" ry="3" transform="rotate(90 20.6743 40.8129)" fill="white" fill-opacity="0.1"/>
<ellipse cx="20.6743" cy="3.50012" rx="3" ry="3" transform="rotate(90 20.6743 3.50012)" fill="white" fill-opacity="0.1"/>
<ellipse cx="57.9868" cy="40.8129" rx="3" ry="3" transform="rotate(90 57.9868 40.8129)" fill="white" fill-opacity="0.1"/>
<ellipse cx="114.938" cy="40.8129" rx="3" ry="3" transform="rotate(90 114.938 40.8129)" fill="white" fill-opacity="0.1"/>
<ellipse cx="134.576" cy="40.8129" rx="3" ry="3" transform="rotate(90 134.576 40.8129)" fill="white" fill-opacity="0.1"/>
<ellipse cx="154.214" cy="40.8129" rx="3" ry="3" transform="rotate(90 154.214 40.8129)" fill="white" fill-opacity="0.1"/>
<ellipse cx="171.889" cy="40.8129" rx="3" ry="3" transform="rotate(90 171.889 40.8129)" fill="white" fill-opacity="0.1"/>
<ellipse cx="134.576" cy="3.50012" rx="3" ry="3" transform="rotate(90 134.576 3.50012)" fill="white" fill-opacity="0.1"/>
</svg>
