<svg width="140" height="139" viewBox="0 0 140 139" fill="none" xmlns="http://www.w3.org/2000/svg">
<ellipse cx="136.576" cy="135.353" rx="3" ry="3" fill="white" fill-opacity="0.1"/>
<ellipse cx="136.576" cy="117.678" rx="3" ry="3" fill="white" fill-opacity="0.1"/>
<ellipse cx="136.576" cy="80.3658" rx="3" ry="3" fill="white" fill-opacity="0.1"/>
<ellipse cx="136.576" cy="23.4147" rx="3" ry="3" fill="white" fill-opacity="0.1"/>
<ellipse cx="136.576" cy="3.77649" rx="3" ry="3" fill="white" fill-opacity="0.1"/>
<ellipse cx="136.576" cy="60.7277" rx="3" ry="3" fill="white" fill-opacity="0.1"/>
<ellipse cx="136.576" cy="43.0533" rx="3" ry="3" fill="white" fill-opacity="0.1"/>
<ellipse cx="136.576" cy="98.0402" rx="3" ry="3" fill="white" fill-opacity="0.1"/>
<ellipse cx="116.938" cy="135.353" rx="3" ry="3" fill="white" fill-opacity="0.1"/>
<ellipse cx="116.938" cy="117.678" rx="3" ry="3" fill="white" fill-opacity="0.1"/>
<ellipse cx="116.938" cy="80.3658" rx="3" ry="3" fill="white" fill-opacity="0.1"/>
<ellipse cx="116.938" cy="23.4147" rx="3" ry="3" fill="white" fill-opacity="0.1"/>
<ellipse cx="116.938" cy="3.77649" rx="3" ry="3" fill="white" fill-opacity="0.1"/>
<ellipse cx="116.938" cy="98.0402" rx="3" ry="3" fill="white" fill-opacity="0.1"/>
<ellipse cx="97.2998" cy="135.353" rx="3" ry="3" fill="white" fill-opacity="0.1"/>
<ellipse cx="97.2998" cy="117.678" rx="3" ry="3" fill="white" fill-opacity="0.1"/>
<ellipse cx="97.2998" cy="80.3658" rx="3" ry="3" fill="white" fill-opacity="0.1"/>
<ellipse cx="97.2998" cy="23.4147" rx="3" ry="3" fill="white" fill-opacity="0.1"/>
<ellipse cx="97.2998" cy="3.77649" rx="3" ry="3" fill="white" fill-opacity="0.1"/>
<ellipse cx="97.2998" cy="60.7277" rx="3" ry="3" fill="white" fill-opacity="0.1"/>
<ellipse cx="59.6382" cy="60.7277" rx="3" ry="3" fill="white" fill-opacity="0.1"/>
<ellipse cx="59.6382" cy="43.0533" rx="3" ry="3" fill="white" fill-opacity="0.1"/>
<ellipse cx="97.2998" cy="98.0402" rx="3" ry="3" fill="white" fill-opacity="0.1"/>
<ellipse cx="77.6614" cy="135.353" rx="3" ry="3" fill="white" fill-opacity="0.1"/>
<ellipse cx="77.6614" cy="117.678" rx="3" ry="3" fill="white" fill-opacity="0.1"/>
<ellipse cx="77.6614" cy="80.3658" rx="3" ry="3" fill="white" fill-opacity="0.1"/>
<ellipse cx="77.6614" cy="23.4147" rx="3" ry="3" fill="white" fill-opacity="0.1"/>
<ellipse cx="77.6616" cy="3.77649" rx="3" ry="3" fill="white" fill-opacity="0.1"/>
<ellipse cx="77.6616" cy="60.7277" rx="3" ry="3" fill="white" fill-opacity="0.1"/>
<ellipse cx="40" cy="60.7277" rx="3" ry="3" fill="white" fill-opacity="0.1"/>
<ellipse cx="77.6616" cy="43.0533" rx="3" ry="3" fill="white" fill-opacity="0.1"/>
<ellipse cx="40" cy="43.0533" rx="3" ry="3" fill="white" fill-opacity="0.1"/>
<ellipse cx="59.9871" cy="117.678" rx="3" ry="3" fill="white" fill-opacity="0.1"/>
<ellipse cx="59.9871" cy="80.3658" rx="3" ry="3" fill="white" fill-opacity="0.1"/>
<ellipse cx="59.9871" cy="23.4147" rx="3" ry="3" fill="white" fill-opacity="0.1"/>
<ellipse cx="40.3489" cy="117.678" rx="3" ry="3" fill="white" fill-opacity="0.1"/>
<ellipse cx="3.03613" cy="117.678" rx="3" ry="3" fill="white" fill-opacity="0.1"/>
<ellipse cx="40.3489" cy="80.3658" rx="3" ry="3" fill="white" fill-opacity="0.1"/>
<ellipse cx="40.3489" cy="23.4147" rx="3" ry="3" fill="white" fill-opacity="0.1"/>
<ellipse cx="40.3489" cy="3.77649" rx="3" ry="3" fill="white" fill-opacity="0.1"/>
<ellipse cx="3.03613" cy="3.77649" rx="3" ry="3" fill="white" fill-opacity="0.1"/>
</svg>
