<svg width="138" height="121" viewBox="0 0 138 121" fill="none" xmlns="http://www.w3.org/2000/svg">
<ellipse rx="3" ry="3" transform="matrix(4.37114e-08 1 1 -4.37114e-08 116.902 117.402)" fill="white" fill-opacity="0.1"/>
<ellipse rx="3" ry="3" transform="matrix(4.37114e-08 1 1 -4.37114e-08 59.9507 117.402)" fill="white" fill-opacity="0.1"/>
<ellipse rx="3" ry="3" transform="matrix(4.37114e-08 1 1 -4.37114e-08 40.3125 117.402)" fill="white" fill-opacity="0.1"/>
<ellipse rx="3" ry="3" transform="matrix(4.37114e-08 1 1 -4.37114e-08 20.6743 117.402)" fill="white" fill-opacity="0.1"/>
<ellipse rx="3" ry="3" transform="matrix(4.37114e-08 1 1 -4.37114e-08 3 117.402)" fill="white" fill-opacity="0.1"/>
<ellipse rx="3" ry="3" transform="matrix(4.37114e-08 1 1 -4.37114e-08 97.2637 117.402)" fill="white" fill-opacity="0.1"/>
<ellipse rx="3" ry="3" transform="matrix(4.37114e-08 1 1 -4.37114e-08 79.5894 117.402)" fill="white" fill-opacity="0.1"/>
<ellipse rx="3" ry="3" transform="matrix(4.37114e-08 1 1 -4.37114e-08 134.576 117.402)" fill="white" fill-opacity="0.1"/>
<ellipse rx="3" ry="3" transform="matrix(4.37114e-08 1 1 -4.37114e-08 116.902 97.7638)" fill="white" fill-opacity="0.1"/>
<ellipse rx="3" ry="3" transform="matrix(4.37114e-08 1 1 -4.37114e-08 59.9507 97.7638)" fill="white" fill-opacity="0.1"/>
<ellipse rx="3" ry="3" transform="matrix(4.37114e-08 1 1 -4.37114e-08 40.3125 97.7638)" fill="white" fill-opacity="0.1"/>
<ellipse rx="3" ry="3" transform="matrix(4.37114e-08 1 1 -4.37114e-08 20.6743 97.7638)" fill="white" fill-opacity="0.1"/>
<ellipse rx="3" ry="3" transform="matrix(4.37114e-08 1 1 -4.37114e-08 3 97.7638)" fill="white" fill-opacity="0.1"/>
<ellipse rx="3" ry="3" transform="matrix(4.37114e-08 1 1 -4.37114e-08 97.2637 97.7638)" fill="white" fill-opacity="0.1"/>
<ellipse rx="3" ry="3" transform="matrix(4.37114e-08 1 1 -4.37114e-08 79.5894 97.7638)" fill="white" fill-opacity="0.1"/>
<ellipse rx="3" ry="3" transform="matrix(4.37114e-08 1 1 -4.37114e-08 134.576 97.7638)" fill="white" fill-opacity="0.1"/>
<ellipse rx="3" ry="3" transform="matrix(4.37114e-08 1 1 -4.37114e-08 116.902 78.1255)" fill="white" fill-opacity="0.1"/>
<ellipse rx="3" ry="3" transform="matrix(4.37114e-08 1 1 -4.37114e-08 59.9507 78.1255)" fill="white" fill-opacity="0.1"/>
<ellipse rx="3" ry="3" transform="matrix(4.37114e-08 1 1 -4.37114e-08 40.3125 78.1255)" fill="white" fill-opacity="0.1"/>
<ellipse rx="3" ry="3" transform="matrix(4.37114e-08 1 1 -4.37114e-08 20.6743 78.1255)" fill="white" fill-opacity="0.1"/>
<ellipse rx="3" ry="3" transform="matrix(4.37114e-08 1 1 -4.37114e-08 3 78.1255)" fill="white" fill-opacity="0.1"/>
<ellipse rx="3" ry="3" transform="matrix(4.37114e-08 1 1 -4.37114e-08 97.2637 78.1255)" fill="white" fill-opacity="0.1"/>
<ellipse rx="3" ry="3" transform="matrix(4.37114e-08 1 1 -4.37114e-08 79.5894 78.1255)" fill="white" fill-opacity="0.1"/>
<ellipse rx="3" ry="3" transform="matrix(4.37114e-08 1 1 -4.37114e-08 116.902 60.451)" fill="white" fill-opacity="0.1"/>
<ellipse rx="3" ry="3" transform="matrix(4.37114e-08 1 1 -4.37114e-08 59.9507 60.451)" fill="white" fill-opacity="0.1"/>
<ellipse rx="3" ry="3" transform="matrix(4.37114e-08 1 1 -4.37114e-08 116.902 40.8129)" fill="white" fill-opacity="0.1"/>
<ellipse rx="3" ry="3" transform="matrix(4.37114e-08 1 1 -4.37114e-08 59.9507 40.8129)" fill="white" fill-opacity="0.1"/>
<ellipse rx="3" ry="3" transform="matrix(4.37114e-08 1 1 -4.37114e-08 40.3125 40.8129)" fill="white" fill-opacity="0.1"/>
<ellipse rx="3" ry="3" transform="matrix(4.37114e-08 1 1 -4.37114e-08 20.6743 40.8129)" fill="white" fill-opacity="0.1"/>
<ellipse rx="3" ry="3" transform="matrix(4.37114e-08 1 1 -4.37114e-08 3 40.8129)" fill="white" fill-opacity="0.1"/>
<ellipse rx="3" ry="3" transform="matrix(4.37114e-08 1 1 -4.37114e-08 40.3125 23.1384)" fill="white" fill-opacity="0.1"/>
<ellipse rx="3" ry="3" transform="matrix(4.37114e-08 1 1 -4.37114e-08 40.3125 3.50012)" fill="white" fill-opacity="0.1"/>
</svg>
