<svg width="175" height="101" viewBox="0 0 175 101" fill="none" xmlns="http://www.w3.org/2000/svg">
<ellipse cx="171.889" cy="3.05298" rx="3" ry="3" transform="rotate(-90 171.889 3.05298)" fill="white" fill-opacity="0.1"/>
<ellipse cx="154.214" cy="3.05298" rx="3" ry="3" transform="rotate(-90 154.214 3.05298)" fill="white" fill-opacity="0.1"/>
<ellipse cx="116.902" cy="3.05298" rx="3" ry="3" transform="rotate(-90 116.902 3.05298)" fill="white" fill-opacity="0.1"/>
<ellipse cx="59.9507" cy="3.05298" rx="3" ry="3" transform="rotate(-90 59.9507 3.05298)" fill="white" fill-opacity="0.1"/>
<ellipse cx="40.3125" cy="3.05298" rx="3" ry="3" transform="rotate(-90 40.3125 3.05298)" fill="white" fill-opacity="0.1"/>
<ellipse cx="20.6743" cy="3.05298" rx="3" ry="3" transform="rotate(-90 20.6743 3.05298)" fill="white" fill-opacity="0.1"/>
<ellipse cx="3" cy="3.05298" rx="3" ry="3" transform="rotate(-90 3 3.05298)" fill="white" fill-opacity="0.1"/>
<ellipse cx="97.2637" cy="3.05298" rx="3" ry="3" transform="rotate(-90 97.2637 3.05298)" fill="white" fill-opacity="0.1"/>
<ellipse cx="97.2637" cy="40.7146" rx="3" ry="3" transform="rotate(-90 97.2637 40.7146)" fill="white" fill-opacity="0.1"/>
<ellipse cx="79.5894" cy="40.7146" rx="3" ry="3" transform="rotate(-90 79.5894 40.7146)" fill="white" fill-opacity="0.1"/>
<ellipse cx="134.576" cy="3.05298" rx="3" ry="3" transform="rotate(-90 134.576 3.05298)" fill="white" fill-opacity="0.1"/>
<ellipse cx="171.889" cy="22.6913" rx="3" ry="3" transform="rotate(-90 171.889 22.6913)" fill="white" fill-opacity="0.1"/>
<ellipse cx="154.214" cy="22.6913" rx="3" ry="3" transform="rotate(-90 154.214 22.6913)" fill="white" fill-opacity="0.1"/>
<ellipse cx="116.902" cy="22.6913" rx="3" ry="3" transform="rotate(-90 116.902 22.6913)" fill="white" fill-opacity="0.1"/>
<ellipse cx="59.9507" cy="22.6913" rx="3" ry="3" transform="rotate(-90 59.9507 22.6913)" fill="white" fill-opacity="0.1"/>
<ellipse cx="40.3125" cy="22.6913" rx="3" ry="3" transform="rotate(-90 40.3125 22.6913)" fill="white" fill-opacity="0.1"/>
<ellipse cx="20.6743" cy="22.6913" rx="3" ry="3" transform="rotate(-90 20.6743 22.6913)" fill="white" fill-opacity="0.1"/>
<ellipse cx="3" cy="22.6913" rx="3" ry="3" transform="rotate(-90 3 22.6913)" fill="white" fill-opacity="0.1"/>
<ellipse cx="97.2637" cy="22.6912" rx="3" ry="3" transform="rotate(-90 97.2637 22.6912)" fill="white" fill-opacity="0.1"/>
<ellipse cx="97.2637" cy="60.3528" rx="3" ry="3" transform="rotate(-90 97.2637 60.3528)" fill="white" fill-opacity="0.1"/>
<ellipse cx="79.5894" cy="22.6912" rx="3" ry="3" transform="rotate(-90 79.5894 22.6912)" fill="white" fill-opacity="0.1"/>
<ellipse cx="79.5894" cy="60.3528" rx="3" ry="3" transform="rotate(-90 79.5894 60.3528)" fill="white" fill-opacity="0.1"/>
<ellipse cx="154.214" cy="40.3657" rx="3" ry="3" transform="rotate(-90 154.214 40.3657)" fill="white" fill-opacity="0.1"/>
<ellipse cx="116.902" cy="40.3657" rx="3" ry="3" transform="rotate(-90 116.902 40.3657)" fill="white" fill-opacity="0.1"/>
<ellipse cx="59.9507" cy="40.3657" rx="3" ry="3" transform="rotate(-90 59.9507 40.3657)" fill="white" fill-opacity="0.1"/>
<ellipse cx="154.214" cy="60.0039" rx="3" ry="3" transform="rotate(-90 154.214 60.0039)" fill="white" fill-opacity="0.1"/>
<ellipse cx="154.214" cy="97.3167" rx="3" ry="3" transform="rotate(-90 154.214 97.3167)" fill="white" fill-opacity="0.1"/>
<ellipse cx="116.902" cy="60.0039" rx="3" ry="3" transform="rotate(-90 116.902 60.0039)" fill="white" fill-opacity="0.1"/>
<ellipse cx="59.9507" cy="60.0039" rx="3" ry="3" transform="rotate(-90 59.9507 60.0039)" fill="white" fill-opacity="0.1"/>
<ellipse cx="40.3125" cy="60.0039" rx="3" ry="3" transform="rotate(-90 40.3125 60.0039)" fill="white" fill-opacity="0.1"/>
<ellipse cx="20.6743" cy="60.0039" rx="3" ry="3" transform="rotate(-90 20.6743 60.0039)" fill="white" fill-opacity="0.1"/>
<ellipse cx="3" cy="60.0039" rx="3" ry="3" transform="rotate(-90 3 60.0039)" fill="white" fill-opacity="0.1"/>
<ellipse cx="40.3125" cy="97.3167" rx="3" ry="3" transform="rotate(-90 40.3125 97.3167)" fill="white" fill-opacity="0.1"/>
</svg>
