<svg width="477" height="171" viewBox="0 0 477 171" fill="none" xmlns="http://www.w3.org/2000/svg">
<path d="M6.54995 86.4546V23.4546H52.45V36.0546H20.05V51.3546H45.25V63.5046H20.05V86.4546H6.54995ZM56.0148 86.4546V23.4546H85.7148C93.2148 23.4546 99.2148 25.4946 103.715 29.5746C108.215 33.5946 110.465 38.6046 110.465 44.6046C110.465 49.2846 109.145 53.2746 106.505 56.5746C103.865 59.8746 100.385 62.3346 96.0648 63.9546L110.465 86.4546H95.1648L82.1148 65.7546H69.5148V86.4546H56.0148ZM69.5148 53.1546H85.2648C88.9848 53.1546 91.7748 52.4046 93.6348 50.9046C95.5548 49.3446 96.5148 47.2446 96.5148 44.6046C96.5148 41.9646 95.5548 39.8946 93.6348 38.3946C91.7748 36.8346 88.9848 36.0546 85.2648 36.0546H69.5148V53.1546ZM122.172 78.6246C115.572 72.1446 112.272 64.2546 112.272 54.9546C112.272 45.6546 115.572 37.7946 122.172 31.3746C128.832 24.8946 137.082 21.6546 146.922 21.6546C156.762 21.6546 164.982 24.8946 171.582 31.3746C178.242 37.7946 181.572 45.6546 181.572 54.9546C181.572 64.2546 178.242 72.1446 171.582 78.6246C164.982 85.0446 156.762 88.2546 146.922 88.2546C137.082 88.2546 128.832 85.0446 122.172 78.6246ZM132.342 40.1046C128.562 43.9446 126.672 48.8946 126.672 54.9546C126.672 61.0146 128.562 65.9946 132.342 69.8946C136.182 73.7346 141.042 75.6546 146.922 75.6546C152.802 75.6546 157.632 73.7346 161.412 69.8946C165.252 65.9946 167.172 61.0146 167.172 54.9546C167.172 48.8946 165.252 43.9446 161.412 40.1046C157.632 36.2046 152.802 34.2546 146.922 34.2546C141.042 34.2546 136.182 36.2046 132.342 40.1046ZM186.058 86.4546V23.4546H203.608L228.358 68.0046H229.258L228.358 60.3546V23.4546H241.858V86.4546H224.308L199.558 41.9046H198.658L199.558 49.5546V86.4546H186.058ZM244.108 36.0546V23.4546H298.108V36.0546H277.858V86.4546H264.358V36.0546H244.108ZM300.368 86.4546V23.4546H347.618V36.0546H313.868V48.6546H340.868V60.3546H313.868V73.8546H347.618V86.4546H300.368ZM352.558 86.4546V23.4546H370.108L394.858 68.0046H395.758L394.858 60.3546V23.4546H408.358V86.4546H390.808L366.058 41.9046H365.158L366.058 49.5546V86.4546H352.558ZM415.558 86.4546V23.4546H438.508C448.468 23.4546 456.658 26.4846 463.078 32.5446C469.498 38.6046 472.708 46.0746 472.708 54.9546C472.708 63.8346 469.498 71.3046 463.078 77.3646C456.658 83.4246 448.468 86.4546 438.508 86.4546H415.558ZM429.058 73.8546H438.508C444.748 73.8546 449.668 72.1446 453.268 68.7246C456.928 65.2446 458.758 60.6546 458.758 54.9546C458.758 49.2546 456.928 44.6946 453.268 41.2746C449.668 37.7946 444.748 36.0546 438.508 36.0546H429.058V73.8546Z" fill="url(#paint0_linear)"/>
<rect width="477" height="92" fill="url(#paint1_linear)"/>
<path d="M5.41646 76.1879H19.3665L28.8165 125.238H29.7165L39.1665 76.1879H57.1665L66.6165 125.238H67.5165L76.9665 76.1879H90.9165L77.8665 139.188H58.0665L48.6165 92.3879H47.7165L38.2665 139.188H18.4665L5.41646 76.1879ZM97.6875 139.188V76.1879H144.938V88.7879H111.188V101.388H138.188V113.088H111.188V126.588H144.938V139.188H97.6875ZM153.477 139.188V76.1879H200.727V88.7879H166.977V101.388H193.977V113.088H166.977V126.588H200.727V139.188H153.477ZM209.266 139.188V76.1879H222.766V100.938H231.766L248.866 76.1879H264.166L243.466 106.338L265.516 139.188H249.766L232.216 113.538H222.766V139.188H209.266ZM267.278 139.188V126.588L288.428 112.638C293.468 109.278 296.978 106.428 298.958 104.088C300.938 101.688 301.928 98.9879 301.928 95.9879C301.928 93.2279 301.058 91.0379 299.318 89.4179C297.578 87.7979 295.148 86.9879 292.028 86.9879C287.888 86.9879 284.798 88.4879 282.758 91.4879C281.858 92.8679 281.228 94.3679 280.868 95.9879H266.828C267.428 92.0279 268.748 88.4279 270.788 85.1879C275.348 77.9879 282.428 74.3879 292.028 74.3879C299.288 74.3879 305.138 76.4279 309.578 80.5079C314.078 84.5279 316.328 89.5379 316.328 95.5379C316.328 99.2579 315.638 102.528 314.258 105.348C312.938 108.108 311.138 110.538 308.858 112.638C306.638 114.678 303.368 117.168 299.048 120.108L292.028 124.788L287.528 126.588V127.038L293.378 126.588H316.328V139.188H267.278ZM331.458 131.718C325.578 125.478 322.638 117.468 322.638 107.688C322.638 97.9079 325.578 89.9279 331.458 83.7479C337.338 77.5079 344.598 74.3879 353.238 74.3879C361.878 74.3879 369.138 77.5079 375.018 83.7479C380.898 89.9279 383.838 97.9079 383.838 107.688C383.838 117.468 380.898 125.478 375.018 131.718C369.138 137.898 361.878 140.988 353.238 140.988C344.598 140.988 337.338 137.898 331.458 131.718ZM341.448 92.2979C338.508 95.7779 337.038 100.908 337.038 107.688C337.038 114.468 338.508 119.628 341.448 123.168C344.448 126.648 348.378 128.388 353.238 128.388C358.098 128.388 361.998 126.648 364.938 123.168C367.938 119.628 369.438 114.468 369.438 107.688C369.438 100.908 367.938 95.7779 364.938 92.2979C361.998 88.7579 358.098 86.9879 353.238 86.9879C348.378 86.9879 344.448 88.7579 341.448 92.2979ZM389.667 139.188V126.588L410.817 112.638C415.857 109.278 419.367 106.428 421.347 104.088C423.327 101.688 424.317 98.9879 424.317 95.9879C424.317 93.2279 423.447 91.0379 421.707 89.4179C419.967 87.7979 417.537 86.9879 414.417 86.9879C410.277 86.9879 407.187 88.4879 405.147 91.4879C404.247 92.8679 403.617 94.3679 403.257 95.9879H389.217C389.817 92.0279 391.137 88.4279 393.177 85.1879C397.737 77.9879 404.817 74.3879 414.417 74.3879C421.677 74.3879 427.527 76.4279 431.967 80.5079C436.467 84.5279 438.717 89.5379 438.717 95.5379C438.717 99.2579 438.027 102.528 436.647 105.348C435.327 108.108 433.527 110.538 431.247 112.638C429.027 114.678 425.757 117.168 421.437 120.108L414.417 124.788L409.917 126.588V127.038L415.767 126.588H438.717V139.188H389.667ZM444.128 100.038V85.1879L456.278 76.1879H468.428V139.188H454.928V91.9379L444.128 100.038Z" fill="white"/>
<defs>
<linearGradient id="paint0_linear" x1="238.405" y1="23.2883" x2="238.405" y2="91.4996" gradientUnits="userSpaceOnUse">
<stop stop-color="#8C31FF"/>
<stop offset="1" stop-color="#F458C8"/>
</linearGradient>
<linearGradient id="paint1_linear" x1="238.941" y1="46.3802" x2="238.941" y2="85.9174" gradientUnits="userSpaceOnUse">
<stop stop-opacity="0"/>
<stop offset="1"/>
</linearGradient>
</defs>
</svg>
