<svg width="129" height="20" viewBox="0 0 129 20" fill="#fff" xmlns="http://www.w3.org/2000/svg">
<path d="M107.6 6.31504C106.595 5.78761 105.451 5.48673 104.237 5.48673C100.23 5.48673 96.9805 8.73628 96.9805 12.7434C96.9805 16.7504 100.23 20 104.237 20C105.451 20 106.595 19.6991 107.6 19.1717V19.823H111.848V5.66372H107.6V6.31504ZM104.237 15.7522C102.577 15.7522 101.228 14.4035 101.228 12.7434C101.228 11.0832 102.577 9.73451 104.237 9.73451C105.897 9.73451 107.246 11.0832 107.246 12.7434C107.246 14.4 105.894 15.7522 104.237 15.7522Z" fill="#ffffff"/>
<path d="M121.582 5.48673C120.368 5.48673 119.225 5.78761 118.219 6.31504V0H113.972V19.823H118.219V19.1717C119.225 19.6991 120.368 20 121.582 20C125.589 20 128.839 16.7504 128.839 12.7434C128.839 8.73628 125.589 5.48673 121.582 5.48673ZM121.582 15.7522C119.922 15.7522 118.573 14.4035 118.573 12.7434C118.573 11.0832 119.922 9.73451 121.582 9.73451C123.242 9.73451 124.591 11.0832 124.591 12.7434C124.591 14.4035 123.239 15.7522 121.582 15.7522Z" fill="#ffffff"/>
<path d="M87.6 0H83.3522V19.823H96.0956V15.5752H87.6V0Z" fill="#ffffff"/>
<path d="M7.07965 0H0V19.823H2.12389V14.1593H7.43363V14.1416C11.1788 13.9575 14.1593 10.8708 14.1593 7.07965C14.1593 3.16814 10.9911 0 7.07965 0ZM7.07965 12.0354H2.12389V2.12389H7.08319C9.81593 2.12743 12.0354 4.3469 12.0354 7.07965C12.0354 9.81239 9.81239 12.0354 7.07965 12.0354Z" fill="#ffffff"/>
<path d="M21.7699 5.48673C17.7628 5.48673 14.5133 8.73628 14.5133 12.7434C14.5133 16.7504 17.7628 20 21.7699 20C25.777 20 29.0265 16.7504 29.0265 12.7434C29.0265 8.73628 25.777 5.48673 21.7699 5.48673ZM21.7699 17.8761C18.9381 17.8761 16.6372 15.5752 16.6372 12.7434C16.6372 9.9115 18.9381 7.61062 21.7699 7.61062C24.6018 7.61062 26.9027 9.9115 26.9027 12.7434C26.9027 15.5752 24.6018 17.8761 21.7699 17.8761Z" fill="#ffffff"/>
<path d="M47.7876 0H45.6637V19.823H47.7876V7.78761H52.3894V5.66372H47.7876V0Z" fill="#ffffff"/>
<path d="M37.6991 5.48673C35.6956 5.48673 33.8796 6.30089 32.5664 7.61416V5.66372H30.4425V19.823H32.5664V12.7434C32.5664 9.9115 34.8673 7.61062 37.6991 7.61062C39.8442 7.61062 41.685 8.93451 42.4496 10.8071L44.4142 9.99291C43.331 7.34867 40.7363 5.48673 37.6991 5.48673Z" fill="#ffffff"/>
<path d="M59.8124 5.48673C55.8053 5.48673 52.5557 8.73628 52.5557 12.7434C52.5557 16.7504 55.8053 20 59.8124 20C63.8195 20 67.069 16.7504 67.069 12.7434C67.069 8.73628 63.8195 5.48673 59.8124 5.48673ZM59.8124 17.8761C56.9805 17.8761 54.6796 15.5752 54.6796 12.7434C54.6796 9.9115 56.9805 7.61062 59.8124 7.61062C62.6442 7.61062 64.9451 9.9115 64.9451 12.7434C64.9451 15.5752 62.6407 17.8761 59.8124 17.8761Z" fill="#ffffff"/>
<path d="M72.7327 17.6991L77.6885 12.7434L72.7327 7.78761V17.6991Z" fill="#ffffff"/>
</svg>
